<svg height="480pt" viewBox="0 0 480 480" width="480pt" xmlns="http://www.w3.org/2000/svg"><path d="m276 264h152c6.628906 0 12 5.371094 12 12v152c0 6.628906-5.371094 12-12 12h-152c-6.628906 0-12-5.371094-12-12v-152c0-6.628906 5.371094-12 12-12zm0 0" fill="#ffe675"/><path d="m303.636719 296h96.726562c4.21875 0 7.636719 3.417969 7.636719 7.636719v96.726562c0 4.21875-3.417969 7.636719-7.636719 7.636719h-96.726562c-4.21875 0-7.636719-3.417969-7.636719-7.636719v-96.726562c0-4.21875 3.417969-7.636719 7.636719-7.636719zm0 0" fill="#e6cf69"/><g fill="#73c97c"><path d="m32 256h-16c-4.417969 0-8 3.582031-8 8v16c0 4.417969 3.582031 8 8 8h16c4.417969 0 8-3.582031 8-8v-16c0-4.417969-8-8-8-8zm0 0"/><path d="m16 192h16c4.417969 0 8 3.582031 8 8v16c0 4.417969-3.582031 8-8 8h-16c-4.417969 0-8-3.582031-8-8v-16c0-4.417969 3.582031-8 8-8zm0 0"/><path d="m80 152h16c4.417969 0 8 3.582031 8 8v16c0 4.417969-3.582031 8-8 8h-16c-4.417969 0-8-3.582031-8-8v-16c0-4.417969 3.582031-8 8-8zm0 0"/><path d="m160 440h16c4.417969 0 8 3.582031 8 8v16c0 4.417969-3.582031 8-8 8h-16c-4.417969 0-8-3.582031-8-8v-16c0-4.417969 3.582031-8 8-8zm0 0"/><path d="m80 344h16c4.417969 0 8 3.582031 8 8v16c0 4.417969-3.582031 8-8 8h-16c-4.417969 0-8-3.582031-8-8v-16c0-4.417969 3.582031-8 8-8zm0 0"/><path d="m176 152h16c4.417969 0 8 3.582031 8 8v16c0 4.417969-3.582031 8-8 8h-16c-4.417969 0-8-3.582031-8-8v-16c0-4.417969 3.582031-8 8-8zm0 0"/><path d="m160 248h16c4.417969 0 8 3.582031 8 8v16c0 4.417969-3.582031 8-8 8h-16c-4.417969 0-8-3.582031-8-8v-16c0-4.417969 3.582031-8 8-8zm0 0"/><path d="m152 8h16c4.417969 0 8 3.582031 8 8v16c0 4.417969-3.582031 8-8 8h-16c-4.417969 0-8-3.582031-8-8v-16c0-4.417969 3.582031-8 8-8zm0 0"/><path d="m248 8h16c4.417969 0 8 3.582031 8 8v16c0 4.417969-3.582031 8-8 8h-16c-4.417969 0-8-3.582031-8-8v-16c0-4.417969 3.582031-8 8-8zm0 0"/><path d="m448 152h16c4.417969 0 8 3.582031 8 8v16c0 4.417969-3.582031 8-8 8h-16c-4.417969 0-8-3.582031-8-8v-16c0-4.417969 3.582031-8 8-8zm0 0"/><path d="m272 152h16c4.417969 0 8 3.582031 8 8v16c0 4.417969-3.582031 8-8 8h-16c-4.417969 0-8-3.582031-8-8v-16c0-4.417969 3.582031-8 8-8zm0 0"/><path d="m352 104h16c4.417969 0 8 3.582031 8 8v16c0 4.417969-3.582031 8-8 8h-16c-4.417969 0-8-3.582031-8-8v-16c0-4.417969 3.582031-8 8-8zm0 0"/><path d="m448 8h16c4.417969 0 8 3.582031 8 8v16c0 4.417969-3.582031 8-8 8h-16c-4.417969 0-8-3.582031-8-8v-16c0-4.417969 3.582031-8 8-8zm0 0"/></g><path d="m448 276c-.011719-11.039062-8.960938-19.988281-20-20h-20v-32h-16v32h-16v-32h-16v32h-16v-32h-16v32h-16v-32h-16v32h-20c-11.039062.011719-19.988281 8.960938-20 20v20h-32v16h32v16h-32v16h32v16h-32v16h32v16h-32v16h32v20c.011719 11.039062 8.960938 19.988281 20 20h20v32h16v-32h16v32h16v-32h16v32h16v-32h16v32h16v-32h20c11.039062-.011719 19.988281-8.960938 20-20v-20h32v-16h-32v-16h32v-16h-32v-16h32v-16h-32v-16h32v-16h-32zm-16 152c0 2.207031-1.792969 4-4 4h-152c-2.207031 0-4-1.792969-4-4v-152c0-2.207031 1.792969-4 4-4h152c2.207031 0 4 1.792969 4 4zm0 0"/><path d="m16 464h16v16h-16zm0 0"/><path d="m80 116v28c-8.832031.007812-15.992188 7.167969-16 16v16c.007812 8.832031 7.167969 15.992188 16 16h16c8.832031-.007812 15.992188-7.167969 16-16v-16c-.007812-8.832031-7.167969-15.992188-16-16v-28c-.011719-11.039062-8.960938-19.988281-20-20-2.207031 0-4-1.792969-4-4v-60h-16v60c.011719 11.039062 8.960938 19.988281 20 20 2.207031 0 4 1.792969 4 4zm16 60h-16v-16h16zm0 0"/><path d="m56 0h16v16h-16zm0 0"/><path d="m16 0h16v16h-16zm0 0"/><path d="m32 248h-16c-8.832031.007812-15.9921875 7.167969-16 16v16c.0078125 8.832031 7.167969 15.992188 16 16v152h16v-152c8.832031-.007812 15.992188-7.167969 16-16v-16c-.007812-8.832031-7.167969-15.992188-16-16zm0 32h-16v-16h16zm0 0"/><path d="m32 184v-152h-16v152c-8.832031.007812-15.9921875 7.167969-16 16v16c.0078125 8.832031 7.167969 15.992188 16 16h16c8.832031-.007812 15.992188-7.167969 16-16v-16c-.007812-8.832031-7.167969-15.992188-16-16zm0 32h-16v-16h16zm0 0"/><path d="m176 432h-16c-8.832031.007812-15.992188 7.167969-16 16h-60c-2.207031 0-4-1.792969-4-4v-24c0-2.207031 1.792969-4 4-4h76v-16h-76c-11.039062.011719-19.988281 8.960938-20 20v24c.011719 11.039062 8.960938 19.988281 20 20h60c.007812 8.832031 7.167969 15.992188 16 16h16c8.832031-.007812 15.992188-7.167969 16-16v-16c-.007812-8.832031-7.167969-15.992188-16-16zm0 32h-16v-16h16zm0 0"/><path d="m176 400h16v16h-16zm0 0"/><path d="m172 304h-76v16h76c2.207031 0 4 1.792969 4 4v24c0 2.207031-1.792969 4-4 4h-60c-.007812-8.832031-7.167969-15.992188-16-16h-16c-8.832031.007812-15.992188 7.167969-16 16v16c.007812 8.832031 7.167969 15.992188 16 16h16c8.832031-.007812 15.992188-7.167969 16-16h60c11.039062-.011719 19.988281-8.960938 20-20v-24c-.011719-11.039062-8.960938-19.988281-20-20zm-76 64h-16v-16h16zm0 0"/><path d="m64 304h16v16h-16zm0 0"/><path d="m176 240h-16c-8.832031.007812-15.992188 7.167969-16 16h-52c-2.207031 0-4-1.792969-4-4v-24c0-2.207031 1.792969-4 4-4h68v-16h-68c-11.039062.011719-19.988281 8.960938-20 20v24c.011719 11.039062 8.960938 19.988281 20 20h52c.007812 8.832031 7.167969 15.992188 16 16h16c8.832031-.007812 15.992188-7.167969 16-16v-16c-.007812-8.832031-7.167969-15.992188-16-16zm0 32h-16l-.011719-16h16.011719zm0 0"/><path d="m176 208h16v16h-16zm0 0"/><path d="m128 176h16v16h-16zm0 0"/><path d="m108 80h16c2.207031 0 4 1.792969 4 4v76h16v-76c-.011719-11.039062-8.960938-19.988281-20-20h-16c-2.207031 0-4-1.792969-4-4v-24c0-2.207031 1.792969-4 4-4h28c.007812 8.832031 7.167969 15.992188 16 16h16c8.832031-.007812 15.992188-7.167969 16-16v-16c-.007812-8.832031-7.167969-15.9921875-16-16h-16c-8.832031.0078125-15.992188 7.167969-16 16h-28c-11.039062.011719-19.988281 8.960938-20 20v24c.011719 11.039062 8.960938 19.988281 20 20zm44-64h16l.011719 16h-16.011719zm0 0"/><path d="m240 124c0-2.207031 1.792969-4 4-4 11.039062-.011719 19.988281-8.960938 20-20v-52c8.832031-.007812 15.992188-7.167969 16-16v-16c-.007812-8.832031-7.167969-15.9921875-16-16h-16c-8.832031.0078125-15.992188 7.167969-16 16v16c.007812 8.832031 7.167969 15.992188 16 16v52c0 2.207031-1.792969 4-4 4-11.039062.011719-19.988281 8.960938-20 20v36h16zm8-108h16v16h-16zm0 0"/><path d="m224 176h16v16h-16zm0 0"/><path d="m200 60c0 2.207031-1.792969 4-4 4-11.039062.011719-19.988281 8.960938-20 20v60c-8.832031.007812-15.992188 7.167969-16 16v16c.007812 8.832031 7.167969 15.992188 16 16h16c8.832031-.007812 15.992188-7.167969 16-16v-16c-.007812-8.832031-7.167969-15.992188-16-16v-60c0-2.207031 1.792969-4 4-4 11.039062-.011719 19.988281-8.960938 20-20v-28h-16zm-8 116h-16v-16h16zm0 0"/><path d="m200 0h16v16h-16zm0 0"/><path d="m464 144v-56h-16v56c-8.832031.007812-15.992188 7.167969-16 16v16c.007812 8.832031 7.167969 15.992188 16 16h16c8.832031-.007812 15.992188-7.167969 16-16v-16c-.007812-8.832031-7.167969-15.992188-16-16zm0 32h-16l-.011719-16h16.011719zm0 0"/><path d="m448 56h16v16h-16zm0 0"/><path d="m400 156c0 2.207031-1.792969 4-4 4h-92c-.007812-8.832031-7.167969-15.992188-16-16h-16c-8.832031.007812-15.992188 7.167969-16 16v16c.007812 8.832031 7.167969 15.992188 16 16h16c8.832031-.007812 15.992188-7.167969 16-16h92c11.039062-.011719 19.988281-8.960938 20-20v-68h-16zm-128 20v-16h16l.011719 16zm0 0"/><path d="m400 56h16v16h-16zm0 0"/><path d="m280 108c.011719 11.039062 8.960938 19.988281 20 20h36c.007812 8.832031 7.167969 15.992188 16 16h16c8.832031-.007812 15.992188-7.167969 16-16v-16c-.007812-8.832031-7.167969-15.992188-16-16h-16c-8.832031.007812-15.992188 7.167969-16 16h-36c-2.207031 0-4-1.792969-4-4v-24c0-2.207031 1.792969-4 4-4 11.039062-.011719 19.988281-8.960938 20-20v-28h-16v28c0 2.207031-1.792969 4-4 4-11.039062.011719-19.988281 8.960938-20 20zm72 4h16v16h-16l-.011719-16zm0 0"/><path d="m304 0h16v16h-16zm0 0"/><path d="m464 0h-16c-8.832031.0078125-15.992188 7.167969-16 16h-60c-11.039062.011719-19.988281 8.960938-20 20v12h16v-12c0-2.207031 1.792969-4 4-4h60c.007812 8.832031 7.167969 15.992188 16 16h16c8.832031-.007812 15.992188-7.167969 16-16v-16c-.007812-8.832031-7.167969-15.9921875-16-16zm-16 32v-16h16l.011719 16zm0 0"/><path d="m352 64h16v16h-16zm0 0"/></svg>