<svg id="Layer_1" enable-background="new 0 0 512.001 512.001" height="512" viewBox="0 0 512.001 512.001" width="512" xmlns="http://www.w3.org/2000/svg"><g><g clip-rule="evenodd" fill-rule="evenodd"><path d="m246.001 190h20.001c5.5 0 9.999-4.5 9.999-10v-20h20c5.5 0 10-4.499 10-9.999v-20.001c0-5.5-4.5-10-10-10h-20v-20c0-5.5-4.499-10-9.999-10h-20.001c-5.5 0-9.999 4.5-9.999 10v20h-20c-5.5 0-10 4.499-10 10v20c0 5.5 4.5 9.999 10 9.999h20v20c-.001 5.501 4.498 10.001 9.999 10.001z" fill="#ff5a58"/><path d="m306.001 129.999v20.001c0 5.5-4.5 9.999-10 9.999h-20v20c0 5.5-4.499 10-9.999 10h-20.001c-5.5 0-9.999-4.5-9.999-10v-20h-20c-5.5 0-10-4.499-10-9.999v-20.001c0-5.5 4.5-10 10-10h20v-20c0-5.5 4.499-10 9.999-10h20.001c5.5 0 9.999 4.5 9.999 10v20h20c5.5.001 10 4.5 10 10zm50-79.999h-200c-11 0-20 9-20 20v140c0 11 9 20 20 20h200c11 0 20-9 20-20v-140c0-11-9-20-20-20z" fill="#66e0f7"/><path d="m156.001 50h200c11 0 20 9 20 20v140c0 11-9 20-20 20h-200c-11 0-20-9-20-20v-140c0-11 8.999-20 20-20zm200-40h-200c-33 0-60 27-60 60v100 40c0 33 27 60 60 60h200c33 0 60-27 60-60v-40-100c0-33-27-60-60-60z" fill="#fff"/><path d="m96.001 210v-40c-33 0-60 27-60 60v107.079c0 11.046 8.954 20 20 20s20-8.954 20-20v-107.079c0-10.921 9.079-20 20-20z" fill="#a7bdcd"/><path d="m356.001 270h-200v20c0 11 9 20 20 20h34.418l4.88 9.76c2.519 5.037 4.609 10.24 10.24 10.24h60.959c5.631 0 7.722-5.204 10.24-10.24l4.847-9.693 34.416-.067c11 0 20-9 20-20z" fill="#6d91ac"/><path d="m416.001 210c10.921 0 20 9.079 20 20v107.079c0 11.046 8.954 20 20 20s20-8.954 20-20v-107.079c0-32.999-26.999-60-60-60z" fill="#a7bdcd"/><path d="m386.002 310c0-10.999-9.001-20-20-20h-10c0 11-9 20-20 20l-34.418.067-4.847 9.693c-2.518 5.036-4.609 10.24-10.24 10.24h-60.959c-5.63 0-7.721-5.203-10.24-10.24l-4.88-9.76h-34.418c-11 0-20-9-20-20h-10c-10.999 0-20 9.001-20 20v72.002l260.002-.002z" fill="#a7bdcd"/><path d="m386.002 382.002h-260.002-30c-11 0-20 9-20 20v20h360.001v-20c0-11-9-20-20-20z" fill="#fff"/><path d="m396.001 462.002h-280c0 22.091-17.909 40-40 40h360.001c-22.092 0-40.001-17.909-40.001-40z" fill="#a7bdcd"/><path d="m116.001 462.002h280.001c0-22.091 17.909-40 40-40h-360.001c22.091 0 40 17.908 40 40z" fill="#a7bdcd"/><g fill="#6d91ac"><ellipse cx="436.001" cy="462.002" rx="40" ry="40" transform="matrix(.316 -.949 .949 .316 -140.168 729.531)"/><ellipse cx="76.001" cy="462.002" rx="40" ry="40" transform="matrix(.16 -.987 .987 .16 -392.209 463.018)"/></g></g><g><path d="m86.001 462.001c0-5.523-4.478-10-10-10h-.007c-5.522 0-9.997 4.477-9.997 10s4.481 10 10.004 10 10-4.477 10-10z"/><path d="m426.005 462.001c0 5.523 4.481 10 10.004 10s10-4.477 10-10-4.478-10-10-10h-.007c-5.523 0-9.997 4.478-9.997 10z"/><path d="m296.001 110h-10v-10c0-11.028-8.972-20-20-20h-20c-11.028 0-20 8.972-20 20v10h-10c-11.028 0-20 8.972-20 20v20c0 11.028 8.972 20 20 20h10v10c0 11.028 8.972 20 20 20h20c11.028 0 20-8.972 20-20v-10h10c11.028 0 20-8.972 20-20v-20c0-11.028-8.972-20-20-20zm0 40h-20c-5.522 0-10 4.477-10 10v20h-20v-20c0-5.523-4.478-10-10-10h-20v-20h20c5.522 0 10-4.477 10-10l-.002-20h20.002v20c0 5.523 4.478 10 10 10h20z"/><path d="m356.001 40h-200c-16.542 0-30 13.458-30 30v140c0 16.542 13.458 30 30 30h200c16.542 0 30-13.458 30-30v-140c0-16.542-13.458-30-30-30zm10 170c0 5.514-4.486 10-10 10h-200c-5.514 0-10-4.486-10-10v-140c0-5.514 4.486-10 10-10h200c5.514 0 10 4.486 10 10z"/><path d="m456.001 367.079c16.542 0 30-13.458 30-30v-107.079c0-18.161-6.985-35.402-19.67-48.546-10.927-11.323-25.042-18.526-40.33-20.727v-90.727c0-38.598-31.402-70-70-70h-200c-38.598 0-70 31.402-70 70v90.734c-15.17 2.182-29.185 9.281-40.094 20.477-12.837 13.175-19.906 30.502-19.906 48.789v107.079c0 16.542 13.458 30 30 30s30-13.458 30-30v-107.079c0-1.923.585-3.735 1.571-5.279 6.095 28.358 29.413 50.383 58.429 54.554v.725c-16.542 0-30 13.458-30 30v62 .002h-20c-16.542 0-30 13.458-30 30v11.007c-22.795 4.646-40 24.847-40 48.994 0 27.57 22.43 50 50 50h360.001c27.569 0 49.999-22.43 49.999-50 0-24.146-17.205-44.348-39.999-48.993v-11.007c0-16.542-13.458-30-30-30h-20c0-.001 0-.001 0-.002v-62c0-16.542-13.458-30-30-30h-.001v-.726c29.017-4.17 52.334-26.196 58.429-54.554.986 1.544 1.571 3.356 1.571 5.279v107.079c0 16.542 13.458 30 30 30zm10-127.079v40.002h-20v-40.002zm-10 107.079c-5.514 0-10-4.486-10-10v-37.077h20v37.077c0 5.514-4.487 10-10 10zm8.958-127.079h-20.678c-3.018-8.509-9.771-15.262-18.28-18.28v-20.682c19.419 4.047 34.909 19.631 38.958 38.962zm-398.958 60.002h-20v-40.002h20zm-10 67.077c-5.514 0-10-4.486-10-10v-37.077h20v37.077c0 5.514-4.487 10-10 10zm11.72-127.079h-20.689c4.032-19.39 19.511-34.929 38.968-38.963v20.683c-8.508 3.018-15.261 9.771-18.279 18.28zm68.28 222.188c5.522 0 10-4.477 10-10v-.186h40v.186c0 5.523 4.478 10 10 10s10-4.477 10-10v-.186h40v.186c0 5.523 4.478 10 10 10s10-4.477 10-10v-.186h39.999v.186c0 5.523 4.478 10 10 10s10-4.477 10-10v-.186h40v.186c0 5.523 4.478 10 10 10s10-4.477 10-10v-.186h10.029c-4.377 5.817-7.516 12.614-9.021 20h-262.013c-1.505-7.385-4.644-14.183-9.021-20h10.027v.186c0 5.523 4.477 10 10 10zm240.001 39.628c-5.522 0-10 4.477-10 10v.186h-40v-.186c0-5.523-4.478-10-10-10s-10 4.477-10 10v.186h-40v-.186c0-5.523-4.478-10-10-10s-10 4.477-10 10v.186h-39.999v-.186c0-5.523-4.478-10-10-10s-10 4.477-10 10v.186h-40v-.186c0-5.523-4.478-10-10-10s-10 4.477-10 10v.186h-10.029c4.377-5.817 7.516-12.614 9.021-20h262.013c1.505 7.386 4.645 14.183 9.021 20h-10.027v-.186c0-5.523-4.478-10-10-10zm-330.001-19.815c0-16.542 13.458-30 30-30s30 13.458 30 30-13.458 30-30 30-30-13.458-30-30zm420 .001c0 16.542-13.458 30-29.999 30-16.542 0-30-13.458-30-30s13.458-30 30-30c16.541 0 29.999 13.458 29.999 30zm-39.999-60.001v10h-340.001v-10c0-5.514 4.486-10 10-10h320.001c5.513.001 10 4.487 10 10zm-50-92.001v62 .002h-240.001c0-.001 0-.001 0-.002v-62c0-5.514 4.486-10 10-10h1.72c4.128 11.639 15.243 20 28.28 20h28.237l2.665 5.342c2.521 5.123 7.216 14.658 18.635 14.658h60.959c11.421 0 16.115-9.537 18.637-14.661l2.637-5.284 28.231-.055c13.036 0 24.151-8.361 28.279-20h1.721c5.513 0 10 4.486 10 10zm-20.001-50h-55.003c-5.522 0-10 4.477-10 10s4.478 10 10 10h45.003v10c0 5.514-4.485 10-10.019 10l-34.418.067c-3.78.007-7.234 2.146-8.925 5.528l-5.45 10.913c-.533 1.083-1.273 2.587-1.843 3.492h-58.657c-.569-.904-1.309-2.408-1.842-3.491l-5.484-10.981c-1.693-3.388-5.156-5.528-8.944-5.528h-34.418c-5.514 0-10-4.486-10-10v-10h44.997c5.522 0 10-4.477 10-10s-4.478-10-10-10h-54.997c-27.57 0-50-22.43-50-50v-140c0-27.57 22.43-50 50-50h200c27.57 0 50 22.43 50 50v140c0 27.57-22.43 50-50 50z"/><path d="m256.001 260h-.007c-5.522 0-9.996 4.477-9.996 10s4.48 10 10.003 10 10-4.477 10-10-4.478-10-10-10z"/></g></g></svg>