<svg height="512pt" viewBox="0 -11 512.00101 512" width="512pt" xmlns="http://www.w3.org/2000/svg"><path d="m263.960938 7.578125h-179.128907c-21.671875 0-39.40625 17.730469-39.40625 39.402344v98.519531c0 21.671875 17.734375 39.402344 39.40625 39.402344h179.128907c21.671874 0 39.402343-17.730469 39.402343-39.402344v-98.519531c0-21.671875-17.730469-39.402344-39.402343-39.402344zm0 0" fill="#b4b4b4"/><path d="m263.960938 7.578125h-30.3125c21.671874 0 39.40625 17.730469 39.40625 39.402344v98.519531c0 21.671875-17.734376 39.402344-39.40625 39.402344h30.3125c21.671874 0 39.402343-17.730469 39.402343-39.402344v-98.519531c0-21.671875-17.730469-39.402344-39.402343-39.402344zm0 0" fill="#a7a7a7"/><path d="m452.292969 208.710938h-17.871094c-11.964844 0-21.757813-9.792969-21.757813-21.757813v-142.164063c0-8.640624 7.074219-15.714843 15.714844-15.714843h42.640625c1.667969 0 3.03125 1.367187 3.03125 3.03125v154.847656c0 11.964844-9.789062 21.757813-21.757812 21.757813zm0 0" fill="#c0c0c0"/><path d="m471.019531 29.074219h-30.308593c1.667968 0 3.03125 1.363281 3.03125 3.03125v154.847656c0 9.808594-6.578126 18.148437-15.539063 20.839844 1.972656.59375 4.058594.917969 6.21875.917969h17.871094c11.96875 0 21.757812-9.792969 21.757812-21.757813v-154.847656c0-1.667969-1.363281-3.03125-3.03125-3.03125zm0 0" fill="#a7a7a7"/><path d="m344.207031 422.425781h-326.769531c-5.445312 0-9.859375-4.414062-9.859375-9.859375v-217.804687c0-5.441407 4.414063-9.859375 9.859375-9.859375h326.769531c5.445313 0 9.859375 4.417968 9.859375 9.859375v217.804687c0 5.445313-4.414062 9.859375-9.859375 9.859375zm0 0" fill="#ddd"/><path d="m344.207031 184.902344h-30.308593c5.445312 0 9.859374 4.414062 9.859374 9.859375v217.804687c0 5.445313-4.414062 9.859375-9.859374 9.859375h30.308593c5.445313 0 9.859375-4.414062 9.859375-9.859375v-217.804687c0-5.445313-4.414062-9.859375-9.859375-9.859375zm0 0" fill="#a7a7a7"/><path d="m250.148438 312.816406c0 14.253906-11.558594 25.808594-25.8125 25.808594-14.253907 0-25.8125-11.554688-25.8125-25.808594 0-14.257812 11.558593-25.8125 25.8125-25.8125 14.253906 0 25.8125 11.554688 25.8125 25.8125zm0 0" fill="#f8ce5e"/><path d="m224.335938 287.003906c-5.664063 0-10.898438 1.828125-15.15625 4.921875 6.457031 4.695313 10.65625 12.296875 10.65625 20.890625 0 8.589844-4.199219 16.195313-10.65625 20.886719 4.257812 3.09375 9.492187 4.925781 15.15625 4.925781 14.253906 0 25.8125-11.558594 25.8125-25.8125 0-14.257812-11.558594-25.8125-25.8125-25.8125zm0 0" fill="#f8a501"/><path d="m476.1875 116.953125h-5.695312c-14.746094 0-26.8125-12.0625-26.8125-26.808594v-58.039062c0-1.667969 1.367187-3.03125 3.03125-3.03125h54.679687c1.667969 0 3.03125 1.363281 3.03125 3.03125v56.617187c0 15.527344-12.703125 28.230469-28.234375 28.230469zm0 0" fill="#ddd"/><path d="m501.390625 29.074219h-30.308594c1.664063 0 3.03125 1.363281 3.03125 3.03125v56.617187c0 11.054688-6.445312 20.671875-15.757812 25.300782 3.652343 1.867187 7.773437 2.929687 12.136719 2.929687h5.695312c15.53125 0 28.234375-12.703125 28.234375-28.234375v-56.613281c0-1.667969-1.363281-3.03125-3.03125-3.03125zm0 0" fill="#a7a7a7"/><path d="m69.398438 241.257812c0 7.6875-6.230469 13.914063-13.914063 13.914063-7.6875 0-13.917969-6.226563-13.917969-13.914063 0-7.683593 6.230469-13.914062 13.917969-13.914062 7.683594 0 13.914063 6.230469 13.914063 13.914062zm0 0" fill="#f3f3f3"/><path d="m69.398438 300.917969c0 7.683593-6.230469 13.914062-13.914063 13.914062-7.6875 0-13.917969-6.230469-13.917969-13.914062 0-7.683594 6.230469-13.914063 13.917969-13.914063 7.683594 0 13.914063 6.230469 13.914063 13.914063zm0 0" fill="#f3f3f3"/><path d="m69.398438 360.578125c0 7.683594-6.230469 13.914063-13.914063 13.914063-7.6875 0-13.917969-6.230469-13.917969-13.914063 0-7.6875 6.230469-13.914063 13.917969-13.914063 7.683594 0 13.914063 6.226563 13.914063 13.914063zm0 0" fill="#f3f3f3"/><path d="m138.492188 374.492188h-17.558594c-7.515625 0-13.605469-6.089844-13.605469-13.605469v-119.9375c0-7.511719 6.089844-13.605469 13.605469-13.605469h17.558594c7.515624 0 13.605468 6.09375 13.605468 13.605469v119.9375c0 7.515625-6.089844 13.605469-13.605468 13.605469zm0 0" fill="#f3f3f3"/><path d="m202.375 56.347656c-7.101562 9.480469-18.214844 15.78125-30.828125 16.375-12.613281-.59375-23.722656-6.894531-30.828125-16.375-1.617188-2.160156-4.648438-2.640625-6.824219-1.042968-15.210937 11.191406-30.777343 21.894531-46.484375 32.398437-1.707031 1.144531-2.164062 3.472656-.980468 5.15625 18.886718 26.890625 49.914062 44.625 85.117187 45.261719 35.207031-.636719 66.230469-18.371094 85.117187-45.261719 1.183594-1.683594.730469-4.011719-.980468-5.15625-15.703125-10.503906-31.269532-21.207031-46.484375-32.398437-2.175781-1.597657-5.207031-1.117188-6.824219 1.042968zm0 0" fill="#ddd"/><path d="m255.683594 87.703125c-15.703125-10.503906-31.269532-21.207031-46.484375-32.398437-2.175781-1.597657-5.207031-1.117188-6.824219 1.042968-2.632812 3.511719-5.8125 6.582032-9.414062 9.089844 10.691406 7.578125 21.511718 14.976562 32.410156 22.265625 1.710937 1.144531 2.164062 3.476563.984375 5.15625-16.125 22.957031-41.097657 39.230469-69.964844 43.898437 4.949219.800782 10.003906 1.273438 15.15625 1.363282 35.203125-.636719 66.230469-18.371094 85.117187-45.257813 1.183594-1.683593.730469-4.015625-.980468-5.160156zm0 0" fill="#a7a7a7"/><g fill="#18191b"><path d="m501.390625 21.496094h-54.679687c-.609376 0-1.207032.0625-1.789063.164062-.503906-.105468-1.027344-.164062-1.5625-.164062h-14.976563c-12.847656 0-23.292968 10.449218-23.292968 23.292968v142.164063c0 16.175781 13.15625 29.335937 29.332031 29.335937h1.675781v156.722657c0 56.296875-45.796875 102.09375-102.089844 102.09375-35.207031 0-66.308593-17.914063-84.667968-45.105469h94.867187c9.617188 0 17.4375-7.820312 17.4375-17.433594v-217.804687c0-9.613281-7.820312-17.4375-17.4375-17.4375h-45.699219c7.746094-8.40625 12.433594-19.613281 12.433594-31.824219v-98.519531c0-25.902344-21.074218-46.980469-46.980468-46.980469h-125.871094c-4.183594 0-7.578125 3.394531-7.578125 7.578125s3.394531 7.578125 7.578125 7.578125h125.871094c17.546874 0 31.824218 14.277344 31.824218 31.824219v98.519531c0 16.167969-12.113281 29.761719-28.179687 31.617188-.363281.042968-.714844.117187-1.0625.207031h-181.710938c-17.550781 0-31.828125-14.277344-31.828125-31.824219v-98.519531c0-17.546875 14.277344-31.824219 31.828125-31.824219h22.949219c4.183594 0 7.578125-3.394531 7.578125-7.578125s-3.394531-7.578125-7.578125-7.578125h-22.949219c-25.90625 0-46.984375 21.078125-46.984375 46.980469v98.519531c0 12.269531 4.734375 23.449219 12.460938 31.824219h-32.871094c-9.617188.003906-17.4375 7.824219-17.4375 17.4375v217.804687c0 9.613282 7.820312 17.4375 17.4375 17.4375h48.71875c4.1875 0 7.578125-3.394531 7.578125-7.578125 0-4.183593-3.390625-7.578125-7.578125-7.578125h-48.71875c-1.257812 0-2.28125-1.023437-2.28125-2.28125v-217.804687c0-1.257813 1.023438-2.28125 2.28125-2.28125h326.769531c1.257813 0 2.28125 1.023437 2.28125 2.28125v31.074219h-117.125c-4.183593 0-7.578125 3.394531-7.578125 7.578124 0 4.183594 3.394532 7.578126 7.578125 7.578126h117.125v171.574218c0 1.257813-1.023437 2.28125-2.28125 2.28125h-103.324219c-5.761718-12.773437-8.96875-26.933594-8.96875-41.835937v-27.6875c14.769532-3.441407 25.808594-16.707031 25.808594-32.507813 0-18.410156-14.976562-33.390625-33.386718-33.390625-18.410157 0-33.386719 14.980469-33.386719 33.390625 0 15.804688 11.039062 29.066406 25.808593 32.507813v27.6875c0 14.734375 2.738282 28.835937 7.722657 41.835937h-128.011719c-4.1875 0-7.578125 3.394532-7.578125 7.578125 0 4.183594 3.390625 7.578125 7.578125 7.578125h135.105469c20.058593 35.914063 58.453125 60.257813 102.433593 60.257813 64.648438 0 117.246094-52.597657 117.246094-117.25v-156.722657h1.039063c16.179687 0 29.335937-13.160156 29.335937-29.335937v-62.835937c17.175782-2.628907 30.371094-17.5 30.371094-35.394532v-56.617187c0-5.851563-4.757812-10.609375-10.609375-10.609375zm-295.289063 291.320312c0-10.054687 8.179688-18.234375 18.234376-18.234375 10.054687 0 18.234374 8.179688 18.234374 18.234375 0 10.050782-8.179687 18.230469-18.234374 18.230469-10.054688 0-18.234376-8.179687-18.234376-18.230469zm246.191407-111.683594h-17.871094c-7.816406 0-14.179687-6.359374-14.179687-14.179687v-142.164063c0-4.484374 3.652343-8.136718 8.140624-8.136718h7.722657v53.492187c0 17.601563 13.296875 32.148438 30.371093 34.144531v62.664063c-.003906 7.820313-6.363281 14.179687-14.183593 14.179687zm44.550781-112.410156c0 11.386719-9.265625 20.652344-20.65625 20.652344h-5.695312c-10.605469 0-19.234376-8.625-19.234376-19.230469v-53.492187h15.21875v28.261718c0 4.1875 3.390626 7.578126 7.578126 7.578126 4.183593 0 7.574218-3.390626 7.574218-7.578126v-28.261718h15.214844zm0 0"/><path d="m55.484375 219.765625c-11.851563 0-21.492187 9.640625-21.492187 21.492187 0 11.851563 9.640624 21.492188 21.492187 21.492188 11.847656 0 21.488281-9.640625 21.488281-21.492188.003906-11.847656-9.636718-21.492187-21.488281-21.492187zm0 27.832031c-3.496094 0-6.335937-2.84375-6.335937-6.335937 0-3.496094 2.839843-6.339844 6.335937-6.339844 3.492187 0 6.335937 2.84375 6.335937 6.339844 0 3.492187-2.84375 6.335937-6.335937 6.335937zm0 0"/><path d="m55.484375 279.425781c-11.851563 0-21.492187 9.640625-21.492187 21.492188 0 11.851562 9.640624 21.492187 21.492187 21.492187 11.847656 0 21.488281-9.640625 21.488281-21.492187 0-11.851563-9.636718-21.492188-21.488281-21.492188zm0 27.828125c-3.496094 0-6.335937-2.839844-6.335937-6.335937 0-3.496094 2.839843-6.335938 6.335937-6.335938 3.492187 0 6.335937 2.839844 6.335937 6.335938 0 3.496093-2.84375 6.335937-6.335937 6.335937zm0 0"/><path d="m55.484375 339.085938c-11.851563 0-21.492187 9.640624-21.492187 21.492187s9.640624 21.492187 21.492187 21.492187c11.847656 0 21.488281-9.640624 21.488281-21.492187s-9.636718-21.492187-21.488281-21.492187zm0 27.828124c-3.496094 0-6.335937-2.84375-6.335937-6.335937 0-3.496094 2.839843-6.339844 6.335937-6.339844 3.492187 0 6.335937 2.84375 6.335937 6.339844 0 3.492187-2.84375 6.335937-6.335937 6.335937zm0 0"/><path d="m138.492188 382.070312c11.679687 0 21.183593-9.503906 21.183593-21.183593v-119.9375c0-11.679688-9.503906-21.183594-21.183593-21.183594h-17.558594c-11.679688 0-21.183594 9.503906-21.183594 21.183594v119.9375c0 11.679687 9.503906 21.183593 21.183594 21.183593zm-23.585938-21.183593v-52.390625h9.007812c4.183594 0 7.578126-3.394532 7.578126-7.578125 0-4.183594-3.394532-7.578125-7.578126-7.578125h-9.007812v-52.390625c0-3.324219 2.703125-6.027344 6.027344-6.027344h17.558594c3.324218 0 6.027343 2.703125 6.027343 6.027344v17.21875h-9.003906c-4.1875 0-7.578125 3.390625-7.578125 7.578125 0 4.183594 3.390625 7.578125 7.578125 7.578125h9.003906v57.722656h-9.003906c-4.1875 0-7.578125 3.394531-7.578125 7.578125 0 4.1875 3.390625 7.578125 7.578125 7.578125h9.003906v14.683594c0 3.324219-2.703125 6.027343-6.027343 6.027343h-17.558594c-3.324219 0-6.027344-2.703124-6.027344-6.027343zm0 0"/><path d="m78.382812 88.707031c-.558593 2.996094.097657 6.019531 1.84375 8.507813 20.863282 29.703125 54.953126 47.828125 91.183594 48.484375h.136719.136719c36.230468-.65625 70.320312-18.78125 91.179687-48.480469 1.75-2.492188 2.40625-5.511719 1.847657-8.507812-.550782-2.964844-2.308594-5.628907-4.816407-7.304688-18.21875-12.1875-32.898437-22.417969-46.203125-32.203125-5.484375-4.035156-13.285156-2.867187-17.378906 2.601563-5.933594 7.917968-14.945312 12.761718-24.765625 13.328124-9.820313-.566406-18.832031-5.410156-24.765625-13.328124-4.09375-5.46875-11.890625-6.636719-17.378906-2.601563-13.304688 9.785156-27.988282 20.019531-46.203125 32.203125-2.507813 1.675781-4.261719 4.335938-4.816407 7.300781zm130.054688-27.816406c0 .007813-.003906.011719-.007812.015625.003906-.003906.007812-.011719.007812-.015625zm-72.152344 2.058594c8.707032 10.417969 21.285156 16.699219 34.90625 17.34375.234375.011719.476563.011719.710938 0 13.621094-.644531 26.199218-6.925781 34.90625-17.34375 12.09375 8.839843 25.34375 18.082031 41.285156 28.789062-18.210938 23.796875-46.523438 38.21875-76.546875 38.804688-30.023437-.585938-58.335937-15.007813-76.546875-38.804688 15.941406-10.707031 29.191406-19.949219 41.285156-28.789062zm0 0"/></g></svg>